<?xml version="1.0" encoding="utf-8"?>
<!-- Generator: Adobe Illustrator 25.2.1, SVG Export Plug-In . SVG Version: 6.00 Build 0)  -->
<!DOCTYPE svg PUBLIC "-//W3C//DTD SVG 1.1//EN" "http://www.w3.org/Graphics/SVG/1.1/DTD/svg11.dtd" [
	<!ENTITY ns_extend "http://ns.adobe.com/Extensibility/1.0/">
	<!ENTITY ns_ai "http://ns.adobe.com/AdobeIllustrator/10.0/">
	<!ENTITY ns_graphs "http://ns.adobe.com/Graphs/1.0/">
	<!ENTITY ns_vars "http://ns.adobe.com/Variables/1.0/">
	<!ENTITY ns_imrep "http://ns.adobe.com/ImageReplacement/1.0/">
	<!ENTITY ns_sfw "http://ns.adobe.com/SaveForWeb/1.0/">
	<!ENTITY ns_custom "http://ns.adobe.com/GenericCustomNamespace/1.0/">
	<!ENTITY ns_adobe_xpath "http://ns.adobe.com/XPath/1.0/">
]>
<svg version="1.1" id="Capa_1" xmlns:x="&ns_extend;" xmlns:i="&ns_ai;" xmlns:graph="&ns_graphs;"
	 xmlns="http://www.w3.org/2000/svg" xmlns:xlink="http://www.w3.org/1999/xlink" x="0px" y="0px" viewBox="0 0 595.3 841.9"
	 style="enable-background:new 0 0 595.3 841.9;" xml:space="preserve">
<style type="text/css">
	.st0{fill:#E3F1E9;}
</style>
<metadata>
	<sfw  xmlns="&ns_sfw;">
		<slices></slices>
		<sliceSourceBounds  bottomLeftOrigin="true" height="841.9" width="595.3" x="0" y="-841.9"></sliceSourceBounds>
	</sfw>
</metadata>
<rect class="st0" width="595.3" height="841.9"/>
<path d="M497.5,297.1H97.8c-5.1,0-9.1-4.1-9.1-9.1v-25.8c0-5.1,4.1-9.1,9.1-9.1h399.7c5.1,0,9.1,4.1,9.1,9.1v25.8
	C506.6,293,502.5,297.1,497.5,297.1z"/>
<path d="M497.5,443H97.8c-5.1,0-9.1-4.1-9.1-9.1v-25.8c0-5.1,4.1-9.1,9.1-9.1h399.7c5.1,0,9.1,4.1,9.1,9.1v25.8
	C506.6,438.9,502.5,443,497.5,443z"/>
<path d="M497.5,588.9H97.8c-5.1,0-9.1-4.1-9.1-9.1V554c0-5.1,4.1-9.1,9.1-9.1h399.7c5.1,0,9.1,4.1,9.1,9.1v25.8
	C506.6,584.8,502.5,588.9,497.5,588.9z"/>
</svg>
