<svg id="Capa_1" data-name="Capa 1" xmlns="http://www.w3.org/2000/svg" xmlns:xlink="http://www.w3.org/1999/xlink" width="162mm" height="171.7mm" viewBox="0 0 459.1 486.6"><defs><style>.cls-1,.cls-2{stroke-miterlimit:10;stroke-width:4px;}.cls-1{fill:url(#Degradado_sin_nombre_22);stroke:url(#Degradado_sin_nombre_159);}.cls-2{fill:url(#Degradado_sin_nombre_258);stroke:url(#Degradado_sin_nombre_224);}.cls-3{font-size:42.87px;fill:#59a844;}.cls-3,.cls-5{font-family:Roboto-Medium, Roboto;font-weight:500;}.cls-4{letter-spacing:-0.01em;}.cls-5{font-size:103.96px;fill:#156fb7;}.cls-6{letter-spacing:0.01em;}.cls-7{letter-spacing:0em;}</style><radialGradient id="Degradado_sin_nombre_22" cx="49.09" cy="32.45" r="327.65" gradientUnits="userSpaceOnUse"><stop offset="0" stop-color="#d8c627"/><stop offset="1" stop-color="#48a546"/></radialGradient><linearGradient id="Degradado_sin_nombre_159" x1="17.76" y1="130.25" x2="305.96" y2="130.25" gradientUnits="userSpaceOnUse"><stop offset="0" stop-color="#357a33"/><stop offset="0.06" stop-color="#4f892c"/><stop offset="0.18" stop-color="#7da221"/><stop offset="0.3" stop-color="#a5b917"/><stop offset="0.43" stop-color="#c6cb0e"/><stop offset="0.56" stop-color="#dfd908"/><stop offset="0.69" stop-color="#f1e304"/><stop offset="0.84" stop-color="#fce901"/><stop offset="1" stop-color="#ffeb00"/></linearGradient><radialGradient id="Degradado_sin_nombre_258" cx="451.15" cy="134.79" r="323.68" gradientUnits="userSpaceOnUse"><stop offset="0" stop-color="#9abbe3"/><stop offset="1" stop-color="#0c69b2"/></radialGradient><linearGradient id="Degradado_sin_nombre_224" x1="390.87" y1="215.98" x2="679.06" y2="215.98" gradientTransform="matrix(-1, 0, 0, 1, 865.36, 0)" gradientUnits="userSpaceOnUse"><stop offset="0" stop-color="#09355c"/><stop offset="0.01" stop-color="#0a375e"/><stop offset="0.16" stop-color="#285b85"/><stop offset="0.31" stop-color="#4079a6"/><stop offset="0.47" stop-color="#5290bf"/><stop offset="0.63" stop-color="#60a0d1"/><stop offset="0.8" stop-color="#67aadc"/><stop offset="1" stop-color="#6aaddf"/></linearGradient></defs><path class="cls-1" d="M304,73.4H76.6V187.1H304v15.3c0,11-4.2,20.7-12.4,29s-18,12.5-29.1,12.5H61.5c-11.1,0-20.9-4.1-29.2-12.3s-12.5-18-12.5-29.2V58.1c0-11.2,4.1-20.9,12.5-29.2S50.4,16.6,61.5,16.6h201c10.9,0,20.6,4.1,29,12.5s12.5,18,12.5,29Z" transform="translate(-15.4 -14.6)"/><path class="cls-2" d="M188.3,143.8c0-11,4.2-20.7,12.5-29s18-12.5,29-12.5H430.7c11.2,0,21,4.1,29.3,12.4s12.5,17.9,12.5,29.1V288.2c0,11.1-4.2,20.9-12.5,29.1s-18.1,12.4-29.3,12.4H229.8q-16.8,0-29.1-12.6c-8.3-8.3-12.4-17.9-12.4-28.9V272.8H415.7V159.1H188.3Z" transform="translate(-15.4 -14.6)"/><text class="cls-3" transform="translate(2.8 475)">Chamber of Comme<tspan class="cls-4" x="385.4" y="0">r</tspan><tspan x="400.1" y="0">ce</tspan></text><text class="cls-5" transform="translate(0 426.5)">ARMEN<tspan class="cls-6" x="357.7" y="0">I</tspan><tspan class="cls-7" x="387.9" y="0">A</tspan></text></svg>